<?xml version="1.0" standalone="no"?>
<!DOCTYPE svg PUBLIC "-//W3C//DTD SVG 20010904//EN"
 "http://www.w3.org/TR/2001/REC-SVG-20010904/DTD/svg10.dtd">
<svg version="1.0" xmlns="http://www.w3.org/2000/svg"
 width="500.000000pt" height="500.000000pt" viewBox="0 0 500.000000 500.000000"
 preserveAspectRatio="xMidYMid meet">
<metadata>
Created by potrace 1.16, written by Peter Selinger 2001-2019
</metadata>
<g transform="translate(0.000000,500.000000) scale(0.100000,-0.100000)"
fill="#000000" stroke="none">
<path d="M1485 3385 c-106 -14 -232 -44 -330 -78 l-70 -24 -3 -206 -2 -207 22
0 c13 0 54 20 91 44 199 129 461 154 580 55 65 -53 82 -99 82 -214 0 -95 -2
-104 -37 -178 -42 -88 -62 -116 -172 -245 -102 -121 -378 -372 -578 -528 l-28
-22 0 -156 0 -156 695 0 695 0 -2 178 -3 177 -398 3 -399 2 109 87 c146 117
341 309 419 413 80 107 138 221 165 330 39 153 17 353 -52 469 -125 209 -424
307 -784 256z"/>
<path d="M3235 3394 c-88 -9 -194 -38 -265 -71 -184 -88 -306 -291 -351 -588
-18 -118 -19 -519 -1 -635 54 -356 192 -550 452 -636 79 -26 97 -28 250 -28
144 -1 175 2 245 22 251 73 392 243 454 549 48 232 48 583 1 813 -62 303 -224
494 -470 553 -67 16 -244 28 -315 21z m191 -371 c112 -57 163 -287 151 -688
-8 -290 -38 -419 -114 -496 -95 -98 -254 -66 -317 63 -53 108 -61 174 -61 513
0 252 4 323 17 381 22 95 53 166 88 199 59 56 158 68 236 28z"/>
</g>
</svg>
